#!OML:ASF H:\Dans Jumps\Project 1\Capture day 1\Session 1\subject.ASF
:FULLY-SPECIFIED
:DEGREES
491
root 0.427754 17.726 -1.62656 7.22283 0.971624 -0.770393
lowerback -1.25622 -0.405536 -0.375324
upperback 4.21411 -0.601929 1.70047
thorax 5.07953 -0.352784 1.93636
lowerneck -12.1039 0.0989712 -2.14566
upperneck 35.211 0.484964 0.71214
head 14.0027 0.0240227 0.742075
rclavicle -2.38542e-015 7.15625e-015
rhumerus -19.492 -21.4139 -81.2016
rradius 21.301
rwrist 37.3231
rhand -19.9346 -26.3523
rfingers 7.12502
rthumb 6.403 -56.2355
lclavicle -2.38542e-015 7.15625e-015
lhumerus -17.7711 -2.71592 90.5059
lradius 17.8752
lwrist 3.015
lhand -26.0745 -5.36679
lfingers 7.12502
lthumb 0.473789 24.6124
rfemur -14.8462 -2.79881 19.0415
rtibia 24.1001
rfoot -14.3135 -2.22242
rtoes 11.353
lfemur -13.8546 6.55534 -18.0893
ltibia 19.6335
lfoot -10.2544 5.01162
ltoes 3.09159
492
root 0.426723 17.7262 -1.62481 7.22217 0.970424 -0.781879
lowerback -1.26336 -0.400728 -0.361742
upperback 4.20473 -0.596069 1.70321
thorax 5.07342 -0.349296 1.93185
lowerneck -12.1146 0.0939375 -2.14625
upperneck 35.2245 0.476234 0.717465
head 14.0113 0.020805 0.743175
rclavicle 5.06901e-015 -9.54166e-015
rhumerus -19.5 -21.471 -81.1792
rradius 21.2748
rwrist 37.3766
rhand -19.9425 -26.3391
rfingers 7.12502
rthumb 6.39534 -56.2225
lclavicle 5.06901e-015 -9.54166e-015
lhumerus -17.8091 -2.69896 90.5043
lradius 17.859
lwrist 2.99765
lhand -26.0752 -5.3772
lfingers 7.12502
lthumb 0.473067 24.602
rfemur -14.8293 -2.78784 19.0574
rtibia 24.0808
rfoot -14.3107 -2.23003
rtoes 11.36
lfemur -13.8451 6.55263 -18.0722
ltibia 19.6276
lfoot -10.2524 5.02141
ltoes 3.08303
493
root 0.425779 17.7263 -1.62294 7.21579 0.972299 -0.788519
lowerback -1.26415 -0.398363 -0.353577
upperback 4.19727 -0.593222 1.70529
thorax 5.06588 -0.347513 1.92956
lowerneck -12.1201 0.0895966 -2.14821
upperneck 35.2326 0.469449 0.720715
head 14.0164 0.01801 0.743904
rclavicle 1.2921e-015 -4.77083e-015
rhumerus -19.5127 -21.5084 -81.1599
rradius 21.2548
rwrist 37.4165
rhand -19.955 -26.3253
rfingers 7.12502
rthumb 6.38329 -56.2091
lclavicle 1.2921e-015 -4.77083e-015
lhumerus -17.8456 -2.67883 90.5017
lradius 17.8411
lwrist 2.98044
lhand -26.0776 -5.39613
lfingers 7.12502
lthumb 0.470784 24.5831
rfemur -14.8061 -2.78447 19.0676
rtibia 24.0635
rfoot -14.3099 -2.2343
rtoes 11.358
lfemur -13.8284 6.55321 -18.0605
ltibia 19.6214
lfoot -10.2536 5.02418
ltoes 3.07284
494
root 0.424896 17.7264 -1.62111 7.20952 0.97719 -0.793929
lowerback -1.26569 -0.396813 -0.345538
upperback 4.19129 -0.591451 1.7067
thorax 5.06034 -0.346274 1.92659
lowerneck -12.1302 0.0858474 -2.14675
upperneck 35.2425 0.464203 0.71986
head 14.0232 0.0157704 0.742636
rclavicle -3.37934e-015 7.95139e-016
rhumerus -19.5229 -21.5519 -81.1417
rradius 21.2322
rwrist 37.4628
rhand -19.9654 -26.3122
rfingers 7.12502
rthumb 6.3732 -56.1963
lclavicle -3.37934e-015 7.95139e-016
lhumerus -17.8767 -2.65946 90.4984
lradius 17.8183
lwrist 2.96131
lhand -26.0808 -5.41956
lfingers 7.12502
lthumb 0.467714 24.5597
rfemur -14.7836 -2.78632 19.0766
rtibia 24.0481
rfoot -14.3105 -2.2355
rtoes 11.3602
lfemur -13.8124 6.55414 -18.0501
ltibia 19.6159
lfoot -10.2557 5.02218
ltoes 3.06498
495
root 0.424015 17.7265 -1.61932 7.20226 0.98259 -0.800601
lowerback -1.26626 -0.395672 -0.337098
upperback 4.18587 -0.590266 1.70859
thorax 5.05487 -0.345325 1.92387
lowerneck -12.1409 0.0835418 -2.14203
upperneck 35.2543 0.461775 0.714642
head 14.0311 0.0145791 0.739473
rclavicle -7.55382e-015 -1.66979e-014
rhumerus -19.5335 -21.5856 -81.1263
rradius 21.2115
rwrist 37.4996
rhand -19.9702 -26.3052
rfingers 7.12502
rthumb 6.36857 -56.1895
lclavicle -7.55382e-015 -1.66979e-014
lhumerus -17.907 -2.63827 90.4947
lradius 17.7943
lwrist 2.94363
lhand -26.0813 -5.43286
lfingers 7.12502
lthumb 0.467207 24.5464
rfemur -14.7608 -2.7882 19.0871
rtibia 24.0344
rfoot -14.3116 -2.23663
rtoes 11.3586
lfemur -13.7955 6.55268 -18.0377
ltibia 19.611
lfoot -10.2581 5.02038
ltoes 3.06272
496
root 0.423142 17.7265 -1.61755 7.19569 0.989305 -0.805613
lowerback -1.26807 -0.394981 -0.330833
upperback 4.18063 -0.589594 1.7102
thorax 5.05032 -0.344718 1.92203
lowerneck -12.1509 0.081202 -2.13688
upperneck 35.2655 0.45938 0.708799
head 14.0385 0.0133828 0.735978
rclavicle 7.45443e-015 -1.23246e-014
rhumerus -19.5444 -21.619 -81.1112
rradius 21.1905
rwrist 37.5332
rhand -19.9747 -26.2923
rfingers 7.12502
rthumb 6.36421 -56.1767
lclavicle 7.45443e-015 -1.23246e-014
lhumerus -17.9359 -2.60906 90.4893
lradius 17.7679
lwrist 2.91573
lhand -26.068 -5.41819
lfingers 7.12502
lthumb 0.480057 24.561
rfemur -14.7398 -2.79144 19.0959
rtibia 24.0228
rfoot -14.3137 -2.23673
rtoes 11.3637
lfemur -13.7801 6.54953 -18.0267
ltibia 19.6069
lfoot -10.2603 5.01843
ltoes 3.05305
497
root 0.422304 17.7265 -1.61586 7.19155 0.995142 -0.806813
lowerback -1.27148 -0.39437 -0.328678
upperback 4.17464 -0.588806 1.71035
thorax 5.04594 -0.344184 1.921
lowerneck -12.161 0.0793815 -2.13006
upperneck 35.2776 0.457803 0.701526
head 14.0464 0.0125587 0.731737
rclavicle -7.95139e-016 3.57812e-015
rhumerus -19.5565 -21.6498 -81.098
rradius 21.1722
rwrist 37.5597
rhand -19.9708 -26.2847
rfingers 7.12502
rthumb 6.36796 -56.169
lclavicle -7.95139e-016 3.57812e-015
lhumerus -17.9651 -2.57807 90.4824
lradius 17.7414
lwrist 2.88537
lhand -26.0489 -5.37985
lfingers 7.12502
lthumb 0.498495 24.5993
rfemur -14.723 -2.79574 19.1003
rtibia 24.0135
rfoot -14.3163 -2.2348
rtoes 11.3749
lfemur -13.7676 6.54281 -18.0202
ltibia 19.6029
lfoot -10.2615 5.02022
ltoes 3.04427
498
root 0.421472 17.7264 -1.61423 7.18754 1.00017 -0.806177
lowerback -1.27547 -0.393224 -0.328313
upperback 4.16919 -0.587194 1.70938
thorax 5.04243 -0.343295 1.91985
lowerneck -12.1699 0.0772806 -2.12659
upperneck 35.2884 0.455169 0.6986
head 14.0534 0.0114284 0.72967
rclavicle 5.96354e-016 -1.70955e-014
rhumerus -19.5695 -21.675 -81.0874
rradius 21.1578
rwrist 37.5738
rhand -19.9651 -26.2824
rfingers 7.12502
rthumb 6.37347 -56.1665
lclavicle 5.96354e-016 -1.70955e-014
lhumerus -17.9935 -2.54924 90.4747
lradius 17.7148
lwrist 2.85222
lhand -26.0263 -5.32611
lfingers 7.12502
lthumb 0.5203 24.653
rfemur -14.7081 -2.79929 19.1025
rtibia 24.0071
rfoot -14.3205 -2.23231
rtoes 11.3921
lfemur -13.7545 6.5361 -18.0159
ltibia 19.5972
lfoot -10.2606 5.02247
ltoes 3.03206
499
root 0.420671 17.7264 -1.61269 7.18472 1.00423 -0.806314
lowerback -1.2783 -0.392023 -0.32736
upperback 4.1626 -0.585537 1.709
thorax 5.03706 -0.342358 1.91899
lowerneck -12.1758 0.0756026 -2.1267
upperneck 35.2963 0.453458 0.697379
head 14.0584 0.0104754 0.729032
rclavicle 8.05078e-015 1.19271e-015
rhumerus -19.5856 -21.6955 -81.0772
rradius 21.1474
rwrist 37.5808
rhand -19.9604 -26.2784
rfingers 7.12502
rthumb 6.37808 -56.1624
lclavicle 8.05078e-015 1.19271e-015
lhumerus -18.0228 -2.51598 90.4662
lradius 17.6893
lwrist 2.81064
lhand -25.9946 -5.24429
lfingers 7.12502
lthumb 0.550997 24.7347
rfemur -14.6963 -2.80151 19.1052
rtibia 24.0034
rfoot -14.3261 -2.22946
rtoes 11.4165
lfemur -13.7419 6.5291 -18.0112
ltibia 19.5895
lfoot -10.2601 5.02676
ltoes 3.01813
500
root 0.419917 17.7264 -1.6112 7.18075 1.00752 -0.803977
lowerback -1.28042 -0.390491 -0.327542
upperback 4.15699 -0.58333 1.707
thorax 5.03228 -0.341164 1.91712
lowerneck -12.1778 0.0736867 -2.12839
upperneck 35.3005 0.451185 0.697671
head 14.0608 0.0093073 0.729155
rclavicle -1.19271e-015 -4.37326e-015
rhumerus -19.6019 -21.7177 -81.0687
rradius 21.1389
rwrist 37.5871
rhand -19.9571 -26.2757
rfingers 7.12502
rthumb 6.38127 -56.1596
lclavicle -1.19271e-015 -4.37326e-015
lhumerus -18.0504 -2.49014 90.4579
lradius 17.6615
lwrist 2.77494
lhand -25.9693 -5.1798
lfingers 7.12502
lthumb 0.575436 24.7992
rfemur -14.6842 -2.80271 19.1046
rtibia 24.0015
rfoot -14.3328 -2.22668
rtoes 11.4481
lfemur -13.7265 6.52239 -18.0095
ltibia 19.5801
lfoot -10.2604 5.03121
ltoes 3.01278
501
root 0.419175 17.7262 -1.6097 7.17531 1.00862 -0.800655
lowerback -1.28075 -0.388716 -0.329359
upperback 4.15105 -0.580733 1.70529
thorax 5.02614 -0.339842 1.9165
lowerneck -12.1755 0.0723973 -2.13568
upperneck 35.3034 0.449933 0.701735
head 14.0616 0.00835376 0.731922
rclavicle 4.47266e-015 -1.98785e-015
rhumerus -19.6202 -21.7369 -81.0595
rradius 21.1317
rwrist 37.5926
rhand -19.9564 -26.2703
rfingers 7.12502
rthumb 6.38195 -56.1541
lclavicle 4.47266e-015 -1.98785e-015
lhumerus -18.0805 -2.46627 90.4506
lradius 17.6342
lwrist 2.73996
lhand -25.9474 -5.12172
lfingers 7.12502
lthumb 0.596556 24.8572
rfemur -14.6713 -2.79987 19.1027
rtibia 24.0007
rfoot -14.3404 -2.2273
rtoes 11.4781
lfemur -13.7085 6.5191 -18.009
ltibia 19.5697
lfoot -10.2621 5.03427
ltoes 3.00671
502
root 0.418513 17.7261 -1.60811 7.16712 1.00889 -0.796828
lowerback -1.28087 -0.386844 -0.33092
upperback 4.14783 -0.578029 1.70304
thorax 5.02272 -0.338473 1.91519
lowerneck -12.1727 0.0713103 -2.14202
upperneck 35.3028 0.448866 0.705275
head 14.0607 0.00756373 0.734307
rclavicle -4.96962e-015 5.56597e-015
rhumerus -19.6364 -21.7575 -81.0522
rradius 21.1245
rwrist 37.6
rhand -19.9523 -26.2698
rfingers 7.12502
rthumb 6.38591 -56.1535
lclavicle -4.96962e-015 5.56597e-015
lhumerus -18.1082 -2.44216 90.4431
lradius 17.6076
lwrist 2.7045
lhand -25.9309 -5.07922
lfingers 7.12502
lthumb 0.612488 24.8996
rfemur -14.6546 -2.79678 19.0997
rtibia 24.0001
rfoot -14.3506 -2.22752
rtoes 11.5108
lfemur -13.6861 6.51817 -18.0091
ltibia 19.5582
lfoot -10.2654 5.03577
ltoes 3.00069
503
root 0.41789 17.7259 -1.60648 7.15697 1.00802 -0.792201
lowerback -1.2814 -0.385313 -0.333898
upperback 4.14644 -0.575753 1.70077
thorax 5.02149 -0.337396 1.91463
lowerneck -12.1689 0.0709171 -2.1484
upperneck 35.3012 0.448897 0.708491
head 14.0591 0.00720116 0.736719
rclavicle -7.95139e-016 -2.78299e-015
rhumerus -19.6505 -21.7766 -81.046
rradius 21.116
rwrist 37.6094
rhand -19.9456 -26.2731
rfingers 7.12502
rthumb 6.39235 -56.1566
lclavicle -7.95139e-016 -2.78299e-015
lhumerus -18.1348 -2.41431 90.4351
lradius 17.5809
lwrist 2.66708
lhand -25.922 -5.06053
lfingers 7.12502
lthumb 0.62106 24.9183
rfemur -14.6349 -2.79317 19.096
rtibia 23.9987
rfoot -14.3602 -2.22957
rtoes 11.5285
lfemur -13.661 6.51674 -18.0098
ltibia 19.5469
lfoot -10.2692 5.03882
ltoes 2.99677
